PathFileType	4	(X/Y/Z)	Patient4_TMGait_0pt6_01_right_37.trc.trc
DataRate	CameraRate	NumFrames	NumMarkers	Units	OrigDataRate	OrigDataStartFrame	OrigNumFrames
80.000000000000	80.000000000000	5	33	mm	80.000000000000	36	       141
Frame#	Time	Sacral			L.Shoulder			Chest			R.Shoulder			Neck			R.ASIS			L.ASIS			R.Thigh.Superior			R.Thigh.Lateral			R.Thigh.Inferior			R.Patella			L.Thigh.Superior			L.Thigh.Lateral			L.Thigh.Inferior			L.Patella			L.Shank.Superior			L.Shank.Lateral			L.Shank.Inferior			R.Shank.Superior			R.Shank.Lateral			R.Shank.Inferior			R.Heel			R.Midfoot.Superior			R.Midfoot.Lateral			R.Toe			L.Heel			L.Midfoot.Lateral			L.Midfoot.Superior			L.Toe			L.Elbow			L.Wrist			R.Elbow			R.Wrist			
		X1	Y1	Z1	X2	Y2	Z2	X3	Y3	Z3	X4	Y4	Z4	X5	Y5	Z5	X6	Y6	Z6	X7	Y7	Z7	X8	Y8	Z8	X9	Y9	Z9	X10	Y10	Z10	X11	Y11	Z11	X12	Y12	Z12	X13	Y13	Z13	X14	Y14	Z14	X15	Y15	Z15	X16	Y16	Z16	X17	Y17	Z17	X18	Y18	Z18	X19	Y19	Z19	X20	Y20	Z20	X21	Y21	Z21	X22	Y22	Z22	X23	Y23	Z23	X24	Y24	Z24	X25	Y25	Z25	X26	Y26	Z26	X27	Y27	Z27	X28	Y28	Z28	X29	Y29	Z29	X30	Y30	Z30	X31	Y31	Z31	X32	Y32	Z32	X33	Y33	Z33	

36	44.887500000000	745.572091831872	994.663343774004	460.251170158219	906.198362413939	1431.810447339416	286.896858811838	1003.581638165662	1367.856718670755	452.725485432917	906.317725337949	1433.239337281455	621.418002823292	877.449570574091	1490.354484189873	438.724552116370	971.960880780762	942.651470407145	587.176279750581	966.089661645298	957.658856004070	312.466730808619	1035.746382060492	749.198457056579	556.086619950444	963.906556010574	632.525583014310	611.452185809967	1048.849274802119	589.307821927707	533.093456986981	1058.213571465086	500.479974941857	537.809897671461	1003.204316017513	735.457637531633	339.191709515906	915.795188554148	621.596684631107	272.754644625735	999.294662373853	536.381420340240	332.853719978185	989.423595904337	450.563856013842	329.982890111166	920.034293387009	393.022067920516	325.754665826668	779.256706268791	348.802790512066	278.674970233744	764.489966462503	222.781555974019	339.562135117007	1037.025713888927	409.830266974121	543.816266722466	972.056459886690	299.754786908174	600.277484849729	1024.556402128961	209.409875352129	539.365516127352	904.275916801797	40.737877402254	501.656383260141	1072.489902567109	98.390696266489	545.277107615514	984.156871840141	36.616263053464	580.446042798340	1191.728397251586	48.840046454573	578.325793081955	573.838856851698	155.816786990974	380.390430430859	632.809733621703	105.857246618628	305.365399637283	735.722010482626	120.260930212794	326.107227187313	818.361278125381	31.361046027142	311.167794842342	943.919896187833	1082.561506935518	160.848204225472	1173.537767594671	963.745070400970	184.557855379631	815.077188316725	1094.757637302953	724.725666713499	852.308637637322	835.847656489006	731.607606993887	
37	44.900000000000	744.782358322109	995.511948887969	464.058445999139	904.542248095749	1432.207110120191	288.839761392220	1003.556067743023	1368.290062189404	453.778768358774	908.123396516035	1433.858356056820	623.393535080858	877.415582193659	1490.945203882696	440.833373972967	972.171463801256	943.367414243437	588.992799494587	964.525160729034	958.167000869665	314.345447778857	1033.617602902903	748.507831727811	558.407669315709	960.481422753365	632.571745741054	613.465871790842	1044.738169004068	588.616259300181	534.776567714677	1052.955807073015	499.906521128334	538.989362280330	1007.249587333899	738.411789374812	340.760944758386	924.441710405718	622.442847971611	273.508039575384	1011.155931740864	539.270231745505	333.028753158068	1002.845751946840	452.353124956308	329.618339963561	931.819093866061	394.865924053706	325.523232266257	789.262377921773	355.671519321125	278.970378046740	770.888620448012	229.756725865598	339.041694809380	1031.433739522302	409.395824066552	544.951121175709	966.072649231857	299.508534232498	601.177070820532	1017.848742318809	209.072953731404	539.808203615191	896.848610929402	40.679609586855	501.778767121726	1065.065695278146	98.342705963708	545.392772366135	976.694137316422	36.555334289366	580.586341826877	1184.290697687997	48.794260305145	578.442785636407	578.165390761216	173.173471137048	380.028900020016	633.706345693074	118.917239836795	305.126434942857	737.664721353706	126.342557356385	325.587132041688	813.031519000385	30.231909205882	311.021783496759	939.176898082757	1081.585384422864	165.063639387537	1164.081810680205	952.937096379194	187.497432363771	823.328159222379	1093.395034545083	728.342959807690	873.645533328750	836.469843573353	731.895485045121	
38	44.912500000000	743.843896413835	996.288727616528	467.815770233115	902.711743641562	1432.413719162765	290.612415564542	1003.438652883294	1368.543505449501	454.604764117909	909.955988566526	1434.331658818055	625.206630018283	877.369417143922	1491.421245234242	442.784894176131	972.179128255185	943.887853249171	590.685933155515	962.705453159231	958.480720327155	316.085863196046	1031.272369795039	747.743392172264	560.617544178575	956.983971875603	632.549551435427	615.462403722187	1040.488862467577	587.887110931758	536.401926163305	1047.615545037141	499.303817068160	540.218414956116	1011.066730753641	741.631107206125	342.221969912681	932.773803461468	623.772520288252	274.175100761379	1022.530119765173	542.779743042686	333.231332403302	1015.989108033262	454.870299838937	329.430115276685	943.615373665982	397.282943202994	325.432814760548	799.630112591206	362.603139854182	279.271160768353	777.978115651757	236.903058551859	338.734731122089	1025.761392415502	408.920408071977	546.103681895845	960.028749662381	299.204564668979	602.104804851171	1011.108803633432	208.705978219877	540.263148584410	889.386464006431	40.630654015154	501.900482502686	1057.633456549987	98.244237954224	545.497078817064	969.197054505066	36.481305563569	580.717943175309	1176.837887428501	48.642145542001	578.541862447293	583.796062587930	189.908925642783	379.871109279300	636.007482668483	131.929738168921	305.010836729971	740.677055605119	132.890690517490	325.234763542928	809.096553813365	29.436020787902	310.787740826466	934.127293192141	1080.340337992901	169.291154093466	1153.729365619676	941.824162841437	190.193519478080	831.751914563910	1092.135977163369	732.055320457217	895.745464590498	838.087903273879	732.076567889497	
39	44.925000000000	742.803731847777	997.019275622989	471.489012410579	900.765142101841	1432.482586006045	292.217736127734	1003.236447572742	1368.654313475559	455.228094820302	911.793681443221	1434.716935356221	626.848808068136	877.320953221992	1491.826050710290	444.563752144605	971.977475681042	944.254668144612	592.286468800721	960.648073604774	958.656890824352	317.722612712779	1028.768390232179	746.967896435846	562.677635418608	953.456019358788	632.496153994873	617.411919175559	1036.147846912538	587.151904533857	537.957490918882	1042.228827711355	498.697344146162	541.472606548702	1014.574031953987	745.135279701111	343.642969852284	940.665867954447	625.622739209504	274.792785345199	1033.272584237429	546.917844149418	333.490213534059	1028.692466110142	458.120932454993	329.383333459341	955.270485315347	400.267644811868	325.464847009893	810.179564370815	369.430539457572	279.593975160070	785.726181893289	243.981382592052	338.631958460168	1020.042474046397	408.430852653099	547.253510831413	953.949606935520	298.878719631283	603.052615211735	1004.356002784771	208.334747692765	540.729269649546	881.893241086384	40.600851133531	502.030190843546	1050.196935045407	98.113068691174	545.602921372889	961.673356124275	36.404320576163	580.847289823510	1169.373653366386	48.405435318865	578.627880856391	590.631204655175	205.285990271913	379.938210879048	639.819804938153	144.278428758070	305.029348302642	744.918364557273	139.626240849961	325.027079793099	807.090347782619	29.128997922418	310.454544103749	928.764505134709	1078.908190485787	173.515846863715	1142.418542083451	930.516996394237	192.627809171090	840.382635088317	1091.016360600324	735.773242037655	918.475660147084	840.854524127646	732.087472826814	
40	44.937500000000	741.698490402065	997.734859936080	475.050564588119	898.757520789283	1432.474832492078	293.669315032834	1002.955177123526	1368.671763749646	455.683745852401	913.611377215429	1435.081762770614	628.320037864917	877.274798374759	1492.206970970158	446.164448035164	971.570311349765	944.519642141529	593.819932265027	958.369952474639	958.765357286782	319.291903966377	1026.146025815332	746.226047707199	564.573119735211	949.890618659422	632.442945755992	619.283974687560	1031.726442625568	586.432345293629	539.440279556392	1036.793986005717	498.109970584215	542.723628308008	1017.703267671697	748.933726453451	345.084900954986	948.023741681626	628.004140875460	275.386363670025	1043.283284991334	551.663579378146	333.809497854350	1040.828944312183	462.086285592484	329.423015348874	966.673970150727	403.785298133407	325.579657113276	820.764677902921	375.960741021866	279.946370129139	794.143570932779	250.721345357360	338.703998476132	1014.277370786904	407.954185634212	548.383107273239	947.825463012538	298.563875801330	604.004942822298	997.592680115240	207.985896762948	541.207430286338	874.374034393767	40.595210725599	502.172890361657	1042.758216441141	97.967765828865	545.721596177623	954.131405985675	36.332188718938	580.979387414385	1161.900627917143	48.112657336437	578.706102752363	598.582736932313	218.581985739656	380.232174913359	645.253497295503	155.329912745402	305.177031876060	750.576702420874	146.207478349987	324.929775112427	807.573706849188	29.411450804062	310.009892682429	923.088363530020	1077.390395069864	177.719282357533	1130.092958334625	919.142762063344	194.791547213346	849.246826776093	1090.080409609315	739.403911963531	941.705883907320	844.916644262085	731.866367001680	
